<svg xmlns="http://www.w3.org/2000/svg" viewBox="0 0 64 64" fill="none">
  <defs>
    <linearGradient id="fe" x1="0" y1="0" x2="1" y2="1">
      <stop offset="0%" stop-color="#3b82f6"/>
      <stop offset="100%" stop-color="#6366f1"/>
    </linearGradient>
  </defs>
  <circle cx="22" cy="22" r="10" fill="url(#fe)" opacity="0.15"/>
  <circle cx="22" cy="20" r="5" fill="url(#fe)" opacity="0.35"/>
  <path d="M10 36 Q10 28 16 28 L28 28 Q34 28 34 36 L34 42 Q34 46 28 46 L16 46 Q10 46 10 42 Z" fill="url(#fe)" opacity="0.12"/>
  <circle cx="42" cy="28" r="8" fill="url(#fe)" opacity="0.12"/>
  <circle cx="42" cy="26" r="4" fill="url(#fe)" opacity="0.3"/>
  <path d="M33 40 Q33 34 37 34 L47 34 Q51 34 51 40 L51 44 Q51 46 47 46 L37 46 Q33 46 33 44 Z" fill="url(#fe)" opacity="0.1"/>
</svg>
